<svg xmlns="http://www.w3.org/2000/svg" viewBox="0 0 500 500"><g id="freepik--Floor--inject-19"><path id="freepik--floor--inject-19" d="M75.13,244.21c-96.57,55.76-96.57,146.16,0,201.91s253.15,55.76,349.73,0,96.57-146.15,0-201.91S171.71,188.46,75.13,244.21Z" style="fill:#f5f5f5"></path></g><g id="freepik--Shadows--inject-19"><path id="freepik--Shadow--inject-19" d="M262.81,441.05a.93.93,0,0,1,0,1.76l-54.67,31.63a3.37,3.37,0,0,1-3.06,0L147,440.88c-.85-.48-.85-1.27,0-1.76l54.67-31.63a3.35,3.35,0,0,1,3.05,0Z" style="fill:#e0e0e0"></path><ellipse id="freepik--shadow--inject-19" cx="434.73" cy="305.98" rx="44.13" ry="25.48" style="fill:#e0e0e0"></ellipse><path id="freepik--shadow--inject-19" d="M468,384.78,207.66,234.51a16.14,16.14,0,0,0-14.55,0L66.76,307.46c-5.43,3.13-5.44,8.27,0,11.4l258.6,149.28a14.2,14.2,0,0,0,12.84,0L468,393.19C472,390.88,472,387.1,468,384.78Z" style="fill:#e0e0e0"></path><polygon id="freepik--shadow--inject-19" points="91.59 431.04 129.47 409.17 92.12 387.61 54.24 409.48 91.59 431.04" style="fill:#e0e0e0"></polygon><polygon id="freepik--shadow--inject-19" points="51.75 408 121.07 368.05 85.38 347.46 16.05 387.41 51.75 408" style="fill:#e0e0e0"></polygon><polygon id="freepik--shadow--inject-19" points="142.97 414.22 192.03 385.9 143.66 357.97 94.6 386.3 142.97 414.22" style="fill:#e0e0e0"></polygon></g><g id="freepik--Confetti--inject-19"><g id="freepik--confetti--inject-19"><path d="M353.43,181.55s-.29,5.23,3.6,8.14l4.08-1.23s-2.73-1.31-4.08-6.91Z" style="fill:#455a64"></path><path d="M319.67,142.5s4.71-2.31,5.34-7.12l-3.08-2.95s.2,3-4,6.94Z" style="fill:#455a64"></path><path d="M470.34,54.87s-2.37,4.67-7.2,5.24L460.24,57s3,.23,7-3.94Z" style="fill:#455a64"></path><path d="M462.92,215.83s-2.38,4.67-7.2,5.24l-2.9-3.11s3,.23,7-3.94Z" style="fill:#455a64"></path><path d="M32.74,237.55s2.37,4.68,7.19,5.25l2.91-3.11s-3,.23-7-3.94Z" style="fill:#455a64"></path><path d="M144.39,79.54s2.37,4.67,7.19,5.24l2.91-3.11s-3.56.55-7.54-3.62Z" style="fill:#455a64"></path><path d="M91.41,100.55s-3.22,4.13-1.69,8.74l4,1.31a13.43,13.43,0,0,1,.08-8.35Z" style="fill:#37474f"></path><path d="M276.48,52.42s-.93,5.16-5.38,7.09l-3.68-2.14a13.54,13.54,0,0,0,6.17-5.64Z" style="fill:#37474f"></path><path d="M426.44,38.36s-5.2.65-8.36-3l.95-4.15s1.49,2.63,7.17,3.59Z" style="fill:#1C94A4"></path><path d="M484.29,251.54s-5.2.65-8.37-3l.95-4.15S478.36,247,484,248Z" style="fill:#1C94A4"></path><path d="M242.52,33s-5.2.65-8.37-3l1-4.15s1.49,2.62,7.17,3.59Z" style="fill:#1C94A4"></path><path d="M476.72,123s-5.2.65-8.37-3l1-4.15s1.49,2.63,7.17,3.59Z" style="fill:#1C94A4"></path><path d="M95.52,62.46s5.2.65,8.37-3l-1-4.15s-1.49,2.63-7.17,3.59Z" style="fill:#1C94A4"></path><path d="M221.44,78.17s5.2.64,8.37-3L228.86,71s-1.49,2.63-7.17,3.6Z" style="fill:#1C94A4"></path><path d="M120.32,143.8s5.21.64,8.37-3l-1-4.15s-1.49,2.63-7.17,3.6Z" style="fill:#1C94A4"></path><path d="M26.47,95.48s5.2.65,8.36-3l-.95-4.15s-1.49,2.63-7.17,3.6Z" style="fill:#1C94A4"></path><path d="M466.46,156c5.78-3.51,12.29,7.57,8.89,12.16a2.61,2.61,0,0,1-1.73,1.12,3,3,0,0,1-2.52-1.39c-.77-2.16,3.8-2,4.69-1.61a6.27,6.27,0,0,1,3.9,6.26c-.47,4.1-4.69,7.29-8.53,7.9-.2,0,0,.33.12.32,4.43-.24,9.29-4.19,9.31-8.88,0-3.76-5.92-9.37-9.42-6-3.26,3.18,2.27,5.51,4.63,3s.71-6.94-.66-9.4c-1.74-3.1-5.38-6.35-8.88-3.72-.11.09.08.32.2.25Z" style="fill:#1C94A4"></path><path d="M159.8,26.9c5.06-.5,11.88,7.94,6.94,12C164,41.15,158,40.17,158.07,36a.56.56,0,0,1,.45-.47c4-.91,7.91.8,7.24,5.43a8.93,8.93,0,0,1-8.36,7.33c-.24,0-.16-.42,0-.46,3.46-.73,6.73-2.88,7.41-6.58a4.72,4.72,0,0,0-.75-3.83,3.71,3.71,0,0,0-1.81-1.2c-.59-.19-2.72-.53-3.19,0-.94,1,1.6,2.6,2.36,2.86a5.36,5.36,0,0,0,4.57-.43c2.1-1.47,1.58-4.24.56-6.2-1.37-2.64-3.78-4.8-6.87-4.91-.28,0-.13-.53.09-.55Z" style="fill:#1C94A4"></path><path d="M374.05,45.17c-5.06.5-11.89-7.93-6.95-12,2.74-2.25,8.73-1.28,8.67,2.93a.54.54,0,0,1-.45.47c-4,.91-7.9-.79-7.23-5.43a8.92,8.92,0,0,1,8.36-7.32c.24,0,.15.41,0,.45-3.46.73-6.73,2.88-7.4,6.58a4.76,4.76,0,0,0,.74,3.83,3.73,3.73,0,0,0,1.81,1.21c.59.19,2.73.52,3.2,0,.94-1-1.61-2.6-2.36-2.86a5.36,5.36,0,0,0-4.57.44c-2.1,1.46-1.58,4.23-.56,6.19,1.36,2.65,3.77,4.81,6.86,4.91.28,0,.14.53-.08.55Z" style="fill:#1C94A4"></path><path d="M51.65,33.9c3.6,2,5.62,9.66,1.32,11.92-3.65,1.93-9.67-.09-7.5-4.86a.33.33,0,0,1,.27-.2c4.27,0,4.52,5,2.95,7.92-2.44,4.54-7.32,3.35-10.26,0-.1-.11,0-.43.18-.31,2.55,2.12,6.3,4.33,8.92,1.05,1.4-1.75,2.18-5,.71-7a2.57,2.57,0,0,0-1.58-1.08c-1.38-.15-1.49,1.36-.94,2.46.87,1.75,3.34,2.16,5.09,2,6-.68,3.86-8.77.71-11.63-.1-.08,0-.36.13-.28Z" style="fill:#1C94A4"></path><path d="M23.76,176.5C18,180.09,25,190.89,30.63,189.91a2.61,2.61,0,0,0,1.78-1A3,3,0,0,0,32.3,186c-1.59-1.66-3.53,2.48-3.55,3.46a6.28,6.28,0,0,0,3.84,6.3c3.87,1.42,8.62-.92,10.9-4.08.12-.16.3.13.23.26-2.21,3.84-7.92,6.42-12.12,4.33-3.37-1.67-5.71-9.5-1.1-11.1,4.3-1.49,3.9,4.5.56,5.47s-6.52-2.49-8.1-4.82c-2-2.94-3.25-7.65.66-9.6.13-.06.25.22.14.29Z" style="fill:#1C94A4"></path></g></g><g id="freepik--Character--inject-19"><g id="freepik--character--inject-19"><g id="freepik--Bottom--inject-19"><path d="M454.32,284.79c.05-2.19-2.95-3.55-4.5-4.67a14.83,14.83,0,0,1-4.63-5c-3.65-6.21-8.42-16.58-9.94-19.77s-3.11-5.68-8.77-14.5A64.19,64.19,0,0,1,417.4,215l2.87-53.53c-11.22,1.45-19.85-.36-25.25-4.51-.82,7.52-4,17-5.31,34.83-1.24,16.68-1.75,25.37-.31,33.59.51,2.93,2.1,6.32,5.06,10.57a251.49,251.49,0,0,0,27.81,33.23,135.51,135.51,0,0,1,14.58,16.32,14.5,14.5,0,0,1,2.84,8.52,14.91,14.91,0,0,1-1.53,8.24c-.82,1.56-3,3.63-2.67,5.4.38,2.39,5.72,2.51,10.65.58,3.39-1.32,4.94-4.06,4.85-5.89-.1-2.19-.29-3.23-.33-5.68a9.26,9.26,0,0,1,1.34-5.47C453.25,288.62,454.25,287.82,454.32,284.79Z" style="fill:#ffbda7"></path><path d="M449.46,279.86c.72.88-.16,5.25-.76,8.37s-2.12,10.49-3.13,12.59-3.77,2.63-5.15,2.49a3,3,0,0,1-2.09-1.44,38.15,38.15,0,0,0-3,3.76c-1.15,1.73-2.63,3.63-.12,4.45s8.8,0,12-1.82c3-1.7,3.95-2.86,4.13-5.8s-.18-6.21.24-8.51,2.29-4.88,2.8-6.62,1-3.46-.63-4.73A36.41,36.41,0,0,0,449.46,279.86Z" style="fill:#1C94A4"></path><path d="M454.82,284.46c.5.62-.09,5.18,2.89,12.31l-.9.59-4.27-6.13A19.83,19.83,0,0,0,454.82,284.46Z" style="fill:#1C94A4"></path><g style="opacity:0.15"><path d="M454.82,284.46c.5.62-.09,5.18,2.89,12.31l-.9.59-4.27-6.13A19.83,19.83,0,0,0,454.82,284.46Z"></path></g><path d="M434.73,256.22s-.57-3.1-8.25-15.4h0A64.26,64.26,0,0,1,417.4,215l1.35-25.17.84-15.81c-8.85-1.08-21.13-.5-21.13-.5,0,5.85,1.48,13,9.78,17.09,0,0-.5,28.79-.4,37.2.08,6.33,2.39,22.23,3.53,29.72,4.19,4.82,8,8.91,10.9,11.65l.72.69a17.44,17.44,0,0,0,7.27-4.06A13.88,13.88,0,0,0,434.73,256.22Z" style="fill:#f0997a"></path><path d="M444.22,192.58c.94-12.46-1.49-23.29-10.48-35.67-9,6.54-30.13,5.77-38.72,0,0,0-1.09,9.72,2.26,18.41,2.92,7.55,8.15,11.67,13.57,13.27,0,0-.59,34.42-.9,39.22s1.4,22.09,2.81,33.47c1.24,10.1,2.37,20,3.45,30.11.65,6.07-.12,11.5-2.29,19.67a28.91,28.91,0,0,1-1.89,4.3,10,10,0,0,1-1.37,1.24,7.86,7.86,0,0,0-1.73,2.12c-.35.64-.58,1.51-.08,2a1.89,1.89,0,0,0,.78.41,22,22,0,0,0,9.7,1,5.77,5.77,0,0,0,3.88-1.7,6,6,0,0,0,.81-1.54c.73-1.86,1.2-3.82,1.92-5.68a13.22,13.22,0,0,1,2.23-4c1-1.12,2-2.14,3-3.28a4.93,4.93,0,0,0,1.15-1.91,3.62,3.62,0,0,0-.53-2.74c-.41-.7-.74-1-1.44-2.08a8.29,8.29,0,0,1-1.07-2c-.28-1.11.3-4.57.49-5.7.39-2.37.93-5,1.4-7.38,1.14-5.78,2.22-11.58,3.13-17.4.75-4.77,1.61-9.69,1.52-14.53-.1-5.94-1.47-8.84-.58-14.76S443.29,205,444.22,192.58Z" style="fill:#ffbda7"></path><path d="M432.77,303.75c.27.76-1.79,4.86-1.35,12.58l-1.05.25-2-7.19A19.8,19.8,0,0,0,432.77,303.75Z" style="fill:#1C94A4"></path><g style="opacity:0.15"><path d="M432.77,303.75c.27.76-1.79,4.86-1.35,12.58l-1.05.25-2-7.19A19.8,19.8,0,0,0,432.77,303.75Z"></path></g><path d="M429.27,297.21c.44,1.05-1.64,5-3.1,7.82a70.25,70.25,0,0,1-6.44,10.13c-1.56,1.73-3.63,1.45-5.75,1.12a4.43,4.43,0,0,1-2.06-.79s-2.13,1.25-4.61,2.68c-1.8,1-3.35,3-1.17,4.45s9.4,2,13,1.21c3.35-.79,4.59-1.63,5.59-4.4s1.59-6,2.64-8.1,3.56-4,4.54-5.56,1.45-2.46.27-4.34S429.27,297.21,429.27,297.21Z" style="fill:#1C94A4"></path></g><g id="freepik--Top--inject-19"><path d="M396.2,104.86a6.93,6.93,0,0,0-1.18,5.42,10,10,0,0,0,3,5.3,19.43,19.43,0,0,0,5.17,3.39c5.56,2.65,11.36,3.4,17.43,3.81a48.75,48.75,0,0,0,8.37-.18c1.4-.15,2.77-.38,4.15-.64,1-.18,2-.12,3-.33,4-.84,7.51-3.54,7.49-7.9a7.67,7.67,0,0,0-3.21-6.12,6.47,6.47,0,0,0,2.77,0c.88-.2,1.86-.81,1.84-1.72a2.94,2.94,0,0,1-3.34-1.06,4.31,4.31,0,0,1-.58-3.6c.27-1.08.85-2.05,1.19-3.11,1-3.12-.24-6.57-2.19-9.21-.69-.94-1.47-1.81-2.15-2.75a5.49,5.49,0,0,1-.93-2.85c-.25-2.23-.05-4.52-.63-6.71-1.2-4.47-5.84-8.6-10.42-9.13a3.46,3.46,0,0,1-.79-.16,3.73,3.73,0,0,1-1.17-.93,9.06,9.06,0,0,0-7.25-2.15,20.09,20.09,0,0,0-7.3,2.63A13.9,13.9,0,0,1,405,68.45a12.61,12.61,0,0,0-6.8,3.08,8.76,8.76,0,0,0-2.09,8.91c.38,1.1,1,2.12,1.34,3.23a3.93,3.93,0,0,1-.25,3.37,2.05,2.05,0,0,1-3,.48,2.17,2.17,0,0,0,1.7,2.12,6.34,6.34,0,0,0,2.93-.15,6,6,0,0,0-1.37,5c.37,2,1.73,3.43,1.93,5.43.22,2.24-1.48,3.14-2.81,4.58C396.41,104.6,396.3,104.73,396.2,104.86Z" style="fill:#263238"></path><path d="M385.48,119.64c-7.2,5.83-8.89,7-8.89,7-4.35-6.61-7-10-8.07-13.37s-7.43-9.93-7.43-9.93c-3.36,1.8-4.8,8.1-1.59,13.41,2.34,3.86,2.86,11.29,9.19,23.91,2.27,4.53,4.47,5.36,11,1.53L398.91,131l9-21.8C400.87,107.93,394.52,112.32,385.48,119.64Z" style="fill:#ffbda7"></path><path d="M376.59,126.68c2.21,3.14,3.29,9,3.29,9s1.32-3.83-2-9.92Z" style="fill:#f0997a"></path><path d="M350.88,106.23a14.35,14.35,0,0,0,2.74,4.78c3,4.22,3.89,3.41,6.59,6.56l1.44-11c1-3.37-.68-4.36-3.44-4.34Z" style="fill:#f0997a"></path><g id="freepik--Megaphone--inject-19"><path d="M376.58,94.67a6.87,6.87,0,1,1-.41-9.7A6.87,6.87,0,0,1,376.58,94.67Z" style="fill:#455a64"></path><path d="M373.47,93,364.74,91a6.86,6.86,0,0,0,13.57,0C377.58,92.75,376.27,93.61,373.47,93Z" style="fill:#37474f"></path><path d="M367.33,92.6l-1.65-5.27a70.54,70.54,0,0,1-12,15.94l.66,2.1C357.6,103.44,362.83,98.12,367.33,92.6Z" style="fill:#37474f"></path><path d="M371.64,96.5l-3.22.53-5.12,5.5a9.57,9.57,0,0,1-9,2.84h0c3.79-2.43,8.89-7.79,13-12.77Z" style="fill:#455a64"></path><path d="M361.17,98.5l.05.16a.89.89,0,0,0,.6.55l1.23.27c.26.06.32.26.14.45l-.11.12a.88.88,0,0,1-.77.24l-1.26-.27a.89.89,0,0,1-.59-.56l0-.14a.92.92,0,0,1,.19-.8l.11-.12A.25.25,0,0,1,361.17,98.5Z" style="fill:#1C94A4"></path><path d="M359.38,100.2l.05.15a.85.85,0,0,0,.6.55l1.23.28c.25.06.32.26.14.45l-.11.12a.88.88,0,0,1-.77.24l-1.26-.28a.86.86,0,0,1-.59-.55l-.05-.15a.93.93,0,0,1,.19-.8l.11-.12C359.09,99.9,359.3,100,359.38,100.2Z" style="fill:#1C94A4"></path><path d="M357.59,101.89l.05.16a.87.87,0,0,0,.6.55l1.23.28c.25.05.32.25.14.44l-.11.12a.92.92,0,0,1-.78.25l-1.25-.28a.88.88,0,0,1-.59-.55l-.05-.15a.92.92,0,0,1,.19-.8l.11-.12A.25.25,0,0,1,357.59,101.89Z" style="fill:#1C94A4"></path><path d="M367.73,80.93h0a3.72,3.72,0,0,1,2.49,2.5c.06.15.11.31.16.47a5.69,5.69,0,0,1,.16.59,8.35,8.35,0,0,1,.18,1,11.63,11.63,0,0,1,.06,2,13.64,13.64,0,0,1-1.39,5.26,9.79,9.79,0,0,1-1.45,2.12,4,4,0,0,1-3.58,1.58l3.89.87h0a4.46,4.46,0,0,0,4.11-1.46,9,9,0,0,0,1.39-2,13.66,13.66,0,0,0,1.45-5.36,12.81,12.81,0,0,0-.06-2,8.35,8.35,0,0,0-.18-1c0-.2-.1-.4-.16-.59s-.11-.31-.17-.46a4.41,4.41,0,0,0-2.93-2.6h0l-.11,0-.14,0Z" style="fill:#1C94A4"></path><path d="M368.25,97.32h0a4.46,4.46,0,0,0,4.11-1.46,9,9,0,0,0,1.39-2l-4.36-1.08a9.79,9.79,0,0,1-1.45,2.12,4,4,0,0,1-3.58,1.58Z" style="opacity:0.1"></path><path d="M364.05,82.5a12.42,12.42,0,0,0-2.44,11,3.94,3.94,0,0,0,2.68,3h.07a4,4,0,0,0,3.58-1.58,12.39,12.39,0,0,0,2.44-11,3.93,3.93,0,0,0-2.65-3C366.58,80.68,365.27,81.18,364.05,82.5Z" style="fill:#1C94A4"></path><path d="M364.05,82.5a12.42,12.42,0,0,0-2.44,11,3.94,3.94,0,0,0,2.68,3h.07a4,4,0,0,0,3.58-1.58,12.39,12.39,0,0,0,2.44-11,3.93,3.93,0,0,0-2.65-3C366.58,80.68,365.27,81.18,364.05,82.5Z" style="opacity:0.2"></path><path d="M352,70.18s2.21,6,.1,15.41a38.88,38.88,0,0,1-1.46,5,26.06,26.06,0,0,1-5.17,8.92c4-1.9,8.48-3.63,13.28-3.68a52.89,52.89,0,0,1,5.6.26h0a3.64,3.64,0,0,0,3.33-1.45,10,10,0,0,0,1.76-2.86,12.17,12.17,0,0,0,.68-2.17A11.05,11.05,0,0,0,370,84a3.62,3.62,0,0,0-2.4-2.73h0a54.8,54.8,0,0,1-5.19-2.14C358.14,77.07,354.85,73.61,352,70.18Z" style="fill:#1C94A4"></path><path d="M352,70.18s2.21,6,.1,15.41a38.88,38.88,0,0,1-1.46,5,26.06,26.06,0,0,1-5.17,8.92c4-1.9,8.48-3.63,13.28-3.68a52.89,52.89,0,0,1,5.6.26h0a3.64,3.64,0,0,0,3.33-1.45,10,10,0,0,0,1.76-2.86,12.17,12.17,0,0,0,.68-2.17A11.05,11.05,0,0,0,370,84a3.62,3.62,0,0,0-2.4-2.73h0a54.8,54.8,0,0,1-5.19-2.14C358.14,77.07,354.85,73.61,352,70.18Z" style="fill:#fff;opacity:0.6000000000000001"></path><path d="M350.64,90.58a26.06,26.06,0,0,1-5.17,8.92c4-1.9,8.48-3.63,13.28-3.68a52.89,52.89,0,0,1,5.6.26h0a3.64,3.64,0,0,0,3.33-1.45,10,10,0,0,0,1.76-2.86C364.82,90.45,357,88.67,350.64,90.58Z" style="opacity:0.1"></path><path d="M338.68,68.91a26.28,26.28,0,0,0-5.59,10.62h0c-1.46,5.22-1.65,10.9-.22,15.46,2.55,8.13,9.3,9.63,15.06,3.36a22.65,22.65,0,0,0,3.43-5,31.92,31.92,0,0,0,3.32-15.58c0-.73-.11-1.45-.21-2.15,0-.3-.09-.59-.14-.88h0c-.08-.41-.16-.81-.26-1.21s-.21-.82-.33-1.21C351.18,64.14,344.44,62.64,338.68,68.91Z" style="fill:#1C94A4"></path><path d="M333.09,79.53c-1.46,5.22-1.65,10.9-.22,15.46,2.55,8.13,9.3,9.63,15.06,3.36a22.65,22.65,0,0,0,3.43-5h0c-1.11.47-3.5.42-3.35-.94A20,20,0,0,1,345,96.83a9.13,9.13,0,0,1-5,3.15,4.39,4.39,0,0,1-3.77-1.21,10.31,10.31,0,0,1-2.57-4.47,26.06,26.06,0,0,1,0-13.37S333,80.91,333.09,79.53Z" style="opacity:0.1"></path><path d="M339,69.88a25.28,25.28,0,0,0-5.47,11.05,26.06,26.06,0,0,0,0,13.37,10.31,10.31,0,0,0,2.57,4.47,4.39,4.39,0,0,0,3.77,1.21,9.13,9.13,0,0,0,5-3.15A20,20,0,0,0,348,92.36c.33-.63.64-1.29.92-2a29.3,29.3,0,0,0,1.26-3.7c.07-.27.14-.53.2-.79.11-.43.21-.87.3-1.31a30.37,30.37,0,0,0,.56-4.51.07.07,0,0,1,0,0,25.94,25.94,0,0,0,0-2.93c0-.68-.11-1.36-.21-2,0-.28-.09-.55-.15-.82s-.14-.64-.21-1-.17-.61-.26-.9A10.25,10.25,0,0,0,347.83,68C345.44,65.76,342.15,66.48,339,69.88Z" style="fill:#1C94A4"></path><path d="M339,69.88a25.28,25.28,0,0,0-5.47,11.05,26.06,26.06,0,0,0,0,13.37,10.31,10.31,0,0,0,2.57,4.47,4.39,4.39,0,0,0,3.77,1.21,9.13,9.13,0,0,0,5-3.15A20,20,0,0,0,348,92.36c.33-.63.64-1.29.92-2a29.3,29.3,0,0,0,1.26-3.7c.07-.27.14-.53.2-.79.11-.43.21-.87.3-1.31a30.37,30.37,0,0,0,.56-4.51.07.07,0,0,1,0,0,25.94,25.94,0,0,0,0-2.93c0-.68-.11-1.36-.21-2,0-.28-.09-.55-.15-.82s-.14-.64-.21-1-.17-.61-.26-.9A10.25,10.25,0,0,0,347.83,68C345.44,65.76,342.15,66.48,339,69.88Z" style="opacity:0.4"></path><path d="M344,78.8l-2.09,9a14.33,14.33,0,0,1,6.78,3.24c.1-.22.2-.45.29-.67a30.38,30.38,0,0,0,1.26-3.7c.07-.27.14-.53.2-.79.11-.43.21-.87.3-1.31a30.37,30.37,0,0,0,.56-4.51v0l0-.66C348.43,80.31,344,78.8,344,78.8Z" style="fill:#37474f"></path><path d="M341.3,87.49c.74.67,1.72.48,2.63-.51l0,0a7.36,7.36,0,0,0,1.45-6.48v0a2.81,2.81,0,0,0-.74-1.25c-.73-.68-1.71-.49-2.62.5l0,0a7.35,7.35,0,0,0-1.45,6.48v0a2.94,2.94,0,0,0,.73,1.26Z" style="fill:#1C94A4"></path></g><path d="M358.16,98.34s-1.25-.06-1.68,0c-1,0-1.84-.15-2.4.74-.19.31-.22.81-.46,1.08s-.93.36-1.29.54a1.84,1.84,0,0,0-1,1c-.12.3-.06.79-.27,1s-.8.36-1.11.6c-.71.53-.67,1.64-.79,2.43s-.39,2,.15,2.8a3.74,3.74,0,0,0,1.65,1.19,19.58,19.58,0,0,0,2.31.88,1.25,1.25,0,0,0,1.49-.81c.34-.76,1.33-.75,1.79-1.45.2-.3.18-.68.37-1a2,2,0,0,0,.46-1.07,5.28,5.28,0,0,0-.86-2.2,4.69,4.69,0,0,1-.28-2,3.21,3.21,0,0,1,.4-1.72Z" style="fill:#ffbda7"></path><path d="M368.52,113.31c-1.16-4.35-1.35-6.3-1.86-8.36-.58-2.35-2.54-3.28-4.87-4.38a23.53,23.53,0,0,1-3.56-2c-.92-.63-1,2-.58,2.92.45,1.08,1.81,2.11,2.74,3,2.14,1.9-3.31,6.6-.18,13.13C362.21,119.46,368.52,113.31,368.52,113.31Z" style="fill:#ffbda7"></path><g id="freepik--Bolts--inject-19"><polygon points="311.1 41.33 324.36 54.38 320.72 57.75 332.28 69.21 315.38 57.13 319.07 52.51 311.1 41.33" style="fill:#1C94A4"></polygon><polygon points="296.05 105.51 308.4 94.71 313.34 99.21 327.94 92.01 312.15 103.77 307.83 99.62 296.05 105.51" style="fill:#1C94A4"></polygon><polygon points="289.57 71.2 304.83 80.62 309.35 74.88 326.4 80.01 307.25 70.18 303.34 75.43 289.57 71.2" style="fill:#1C94A4"></polygon></g><path d="M444.18,177.94c-1.71-7.12-4-12.65-6.25-16.13s-2.75-4-3-5.17c-.3-5.95,3.9-12.85,5.4-18.77,0,0-1.92-1.23-3.9-9.29-.91-3.66-.19-8.65.72-14.43l-11.23-3.38s-3.64-.56-11.6-1.07l-6.42-.49s-10.18,8.75-14.68,16.3c-1.82,3-4.13,9.27.47,16.9.14,3,.49,6.87.79,9.89h0c.3,2.85-.32,7.54-2,13.67s-3.84,20.9-4.49,32-.58,15.1-.58,15.1,1.82,5.34,19.84,10,31.8-1.14,31.8-1.14,3.72-14.77,5.12-21.81A53.86,53.86,0,0,0,444.18,177.94Z" style="fill:#1C94A4"></path><path d="M444.18,177.94c-1.71-7.12-4-12.65-6.25-16.13s-2.75-4-3-5.17c-.3-5.95,3.9-12.85,5.4-18.77,0,0-1.92-1.23-3.9-9.29-.91-3.66-.19-8.65.72-14.43l-11.23-3.38s-3.64-.56-11.6-1.07l-6.42-.49s-10.18,8.75-14.68,16.3c-1.82,3-4.13,9.27.47,16.9.14,3,.49,6.87.79,9.89h0c.3,2.85-.32,7.54-2,13.67s-3.84,20.9-4.49,32-.58,15.1-.58,15.1,1.82,5.34,19.84,10,31.8-1.14,31.8-1.14,3.72-14.77,5.12-21.81A53.86,53.86,0,0,0,444.18,177.94Z" style="fill:#fff;opacity:0.30000000000000004"></path><path d="M407.09,143.39s3.57,4.68,11.52,3.55,9.65-7.07,9.65-7.07.28,7.7-9.22,9S407.09,143.39,407.09,143.39Z" style="fill:#1C94A4"></path><g id="freepik--Mobile--inject-19"><path d="M373.93,128.34c.07-.08.19-.1.38-.07l13.86,2.49a1.94,1.94,0,0,1,1.11.72L404.46,154c.12.17.14.32.07.4l-1.24,1.47c-.06.07-.18.1-.37.06l-13.86-2.49a1.94,1.94,0,0,1-1.11-.72L372.77,130.2c-.12-.17-.14-.31-.07-.4Z" style="fill:#455a64"></path><path d="M387.54,132.48a1.79,1.79,0,0,1,.51.47l15.18,22.46c.11.17.13.31.08.39l1.22-1.45c.07-.08.05-.22-.06-.4l-15.19-22.47a1.66,1.66,0,0,0-.51-.47Z" style="fill:#37474f"></path><path d="M402.92,155.88l-13.86-2.49a1.94,1.94,0,0,1-1.11-.72L372.77,130.2c-.23-.33-.09-.54.3-.47l13.87,2.49a2,2,0,0,1,1.11.73l15.18,22.46C403.45,155.74,403.31,156,402.92,155.88Z" style="fill:#263238"></path><path d="M389,137l-1.54-2.29a2.25,2.25,0,0,0-1.28-.83l-.54-.1c-.71-.12-1,.26-.56.86l1.55,2.29a2.3,2.3,0,0,0,1.28.83l.54.09C389.17,138,389.42,137.59,389,137Z" style="fill:#37474f"></path><path d="M388.43,136.8a2.16,2.16,0,0,0-1.2-.75c-.44-.08-.61.13-.38.47a2.09,2.09,0,0,0,1.2.75C388.48,137.34,388.65,137.14,388.43,136.8Z" style="fill:#455a64"></path><path d="M388,136.73a1.05,1.05,0,0,0-.61-.38c-.22,0-.31.07-.2.24a1.08,1.08,0,0,0,.62.38C388.07,137,388.16,136.9,388,136.73Z" style="fill:#fff;opacity:0.2"></path><path d="M387.27,135.11a2.11,2.11,0,0,0-1.2-.75c-.44-.08-.61.13-.38.46a2,2,0,0,0,1.2.75C387.32,135.65,387.49,135.44,387.27,135.11Z" style="fill:#455a64"></path><path d="M386.88,135a1.09,1.09,0,0,0-.61-.38c-.23,0-.31.06-.2.23a1,1,0,0,0,.62.39C386.91,135.32,387,135.21,386.88,135Z" style="fill:#fff;opacity:0.2"></path><path d="M389.89,134.36l.16-.2a.24.24,0,0,1,.2-.08l.27,0a.22.22,0,0,1,.15.1l1.37,2a.41.41,0,0,1,0,.46l-.17.19a.19.19,0,0,1-.2.08l-.26,0a.25.25,0,0,1-.15-.1l-1.38-2A.43.43,0,0,1,389.89,134.36Z" style="fill:#263238"></path><path d="M391.51,136.9l-1.38-2a.39.39,0,0,1,0-.45l.17-.2a.21.21,0,0,1,.35,0l1.37,2a.41.41,0,0,1,0,.46l-.17.19A.2.2,0,0,1,391.51,136.9Z" style="fill:#455a64"></path><path d="M392.15,137.7l.17-.19a.19.19,0,0,1,.2-.08l.27,0a.26.26,0,0,1,.14.1l1.38,2a.39.39,0,0,1,0,.46l-.16.2a.24.24,0,0,1-.2.08l-.27,0a.2.2,0,0,1-.14-.1l-1.38-2A.41.41,0,0,1,392.15,137.7Z" style="fill:#263238"></path><path d="M393.77,140.25l-1.38-2a.39.39,0,0,1,0-.46l.16-.19a.21.21,0,0,1,.35,0l1.38,2a.39.39,0,0,1,0,.46l-.16.2A.21.21,0,0,1,393.77,140.25Z" style="fill:#455a64"></path></g><path d="M394.54,139.26l-.71-1c-.53-1.86.67-3,2.07-1.11,1.12,1.51,4.65,3.6,5.86,5.59s1.65,4.12,4.71,5.86c3.25,1.85,23.2,3.6,23.2,3.6l2.27-22.29s1.64-11.4,5.21-15.71c5.65,2,7.35,3.87,8.75,6.67,2.29,4.57,1.81,9.57.28,20.3-1.46,10.22-2.56,16.34-3.9,20.13-1.65,4.7-3.75,6.92-12.26,5.79s-17.19-5.09-26.57-8.25c-4.51-1.53-7.4-2.18-11-4.12a15,15,0,0,1-3.78-2.67,8.82,8.82,0,0,1-2.28-3.53,2.8,2.8,0,0,0-.27-.73,4.51,4.51,0,0,0-.49-.59,5.53,5.53,0,0,1-.89-1.15,8.63,8.63,0,0,1-.4-1.49,5.49,5.49,0,0,0-.17-.7,4,4,0,0,0-.34-.65,5.27,5.27,0,0,1-.87-1.72,1,1,0,0,1,.28-.93s-.54-.63-.72-.86a5.47,5.47,0,0,1-.62-1,.52.52,0,0,1-.06-.45A.58.58,0,0,1,382,138c1.24-.8,2.57-.11,3.67.58,2.86,1.79,4.28,3.51,7.34,5,4.21,2,4.46.07,4.46.07Z" style="fill:#ffbda7"></path><path d="M429.67,152.15a20.62,20.62,0,0,1,6.1,1.49,11.09,11.09,0,0,0-6-2.68Z" style="fill:#f0997a"></path><path d="M383.29,140.69a24.94,24.94,0,0,0,1.7,1.87c.59.6,1.19,1.18,1.78,1.78.3.29.58.6.9.89s.64.56,1,.81c.67.53,1.35,1,2.06,1.48l-.95-.83-.95-.83c-.31-.28-.63-.56-.93-.85s-.58-.59-.88-.89q-.9-.9-1.83-1.74Z" style="fill:#f28f8f"></path><path d="M384.11,143.76a10.35,10.35,0,0,0,1.09,1.61c.41.51.84,1,1.28,1.46s.91.93,1.39,1.37a13.63,13.63,0,0,0,1.5,1.23c-.45-.46-.89-.94-1.33-1.41l-1.33-1.4-1.32-1.41C385,144.73,384.51,144.27,384.11,143.76Z" style="fill:#f28f8f"></path><g id="freepik--Head--inject-19"><path d="M433,88.36c-2-.81-3.8-.08-4.93,2.06-1,1.86-3,1.16-2.47-1.75-4.54-4.47.87-7.18-2.87-11.5-2.33-2.69-7.41-2.06-9.46-.44a5,5,0,0,0-5.71-2.4c-2.15.72-3.52,2-4.59,4.9s.13,4.21-.42,6.37a19.13,19.13,0,0,0-1,4.77c-.33,8.72,2,12.18,4.22,13.9,1.52,1.17,2.93,1.73,6.28,1.82l-.24,4.44s-4,3-4.52,12.24a43,43,0,0,0,11.19-4c6.59-3.28,8-6.62,8-6.62l.9-15h0c.45,1.17,3.3,2.6,5.71.69C436.11,95.51,436.6,89.81,433,88.36Z" style="fill:#ffbda7"></path><path d="M419.81,86.14a1.35,1.35,0,0,0-.15-.26,2.17,2.17,0,0,0-1.19-.74,3.09,3.09,0,0,0-1.05-.08,3.15,3.15,0,0,0-1.23.38,1.54,1.54,0,0,0-.68.75s0,.11.05.11a1,1,0,0,0,.41-.13l.55-.19a3.76,3.76,0,0,1,1.16-.19,5,5,0,0,1,.94.12,2.67,2.67,0,0,1,.62.15,2.2,2.2,0,0,1,.43.27.29.29,0,0,0,.2,0A1.05,1.05,0,0,0,419.81,86.14Z" style="fill:#f0997a"></path><path d="M404.23,85.54a1.14,1.14,0,0,1,.18-.25,2.13,2.13,0,0,1,1.25-.62,3.15,3.15,0,0,1,1.06,0,3.26,3.26,0,0,1,1.18.51,1.54,1.54,0,0,1,.6.82s0,.1-.06.1a1.13,1.13,0,0,1-.39-.17,5.05,5.05,0,0,0-.53-.24,3.71,3.71,0,0,0-1.14-.31,5.9,5.9,0,0,0-.94,0,3.4,3.4,0,0,0-.64.09,2.67,2.67,0,0,0-.45.22.26.26,0,0,1-.21,0A.85.85,0,0,1,404.23,85.54Z" style="fill:#f0997a"></path><path d="M415,95.71l-5.07,1a2.6,2.6,0,0,0,3.28,2A2.44,2.44,0,0,0,415,95.71Z" style="fill:#b16668"></path><path d="M411.74,98.66a2.72,2.72,0,0,1,3-2.08l.24.06a2.27,2.27,0,0,1-1.8,2A3.13,3.13,0,0,1,411.74,98.66Z" style="fill:#f28f8f"></path><path d="M413.06,84.76l-1.63,9.06-4.7-2.16A31.64,31.64,0,0,1,413.06,84.76Z" style="fill:#f0997a"></path><path d="M404.68,83.14l3.54-.84a1.75,1.75,0,0,0-2.13-1.38A1.9,1.9,0,0,0,404.68,83.14Z" style="fill:#263238"></path><path d="M416.18,82.59l3.66,1.32a1.86,1.86,0,0,0-1.1-2.48A2,2,0,0,0,416.18,82.59Z" style="fill:#263238"></path><path d="M419.64,86.12a2.59,2.59,0,0,0-1.11-.52,3,3,0,0,0-1.11,0,3.92,3.92,0,0,0-1.12.28,2.6,2.6,0,0,0-.92.61s0,.14.05.12.32-.15.48-.21l.26-.1a1.54,1.54,0,0,0-.18,1.16c.2.8.88.7,1.66.52s1.34-.39,1.14-1.19a1.47,1.47,0,0,0-.52-.83c.05.06.22,0,.3,0a2.3,2.3,0,0,1,.43.12,4.38,4.38,0,0,1,.79.5.05.05,0,0,0,0,0,.07.07,0,0,0,.07-.07A.61.61,0,0,0,419.64,86.12Z" style="fill:#263238"></path><path d="M404.3,85.59a2.52,2.52,0,0,1,1.15-.43,3.25,3.25,0,0,1,1.12,0,3.76,3.76,0,0,1,1.08.38,2.44,2.44,0,0,1,.87.68s0,.15,0,.12l-.47-.25-.25-.12a1.54,1.54,0,0,1,.08,1.16c-.26.79-.94.63-1.69.38s-1.3-.5-1-1.28a1.56,1.56,0,0,1,.59-.78c-.06.06-.23,0-.3,0a1.63,1.63,0,0,0-.44.08,3.63,3.63,0,0,0-.83.43l0,0A.08.08,0,0,1,404,86C404,85.81,404.19,85.67,404.3,85.59Z" style="fill:#263238"></path><path d="M412,106.09c6.21-.62,10.14-1.82,13.52-7a9.45,9.45,0,0,1-4.58,6.6,20.26,20.26,0,0,1-9,2.35Z" style="fill:#f0997a"></path></g></g></g></g><g id="freepik--Device--inject-19"><g id="freepik--mobile--inject-19"><path d="M211.13,223,459.19,366.23c6.38,3.68,6.31,7.87,6.31,11.62s-1.69,9-6.31,11.63L340.91,457.77c-4.62,2.66-12.11,2.66-16.73,0L76.11,314.55c-4.62-2.67-5.67-7.14-5.67-10.89s1-9.7,5.67-12.36L194.4,223A15.72,15.72,0,0,1,211.13,223Z" style="fill:#37474f"></path><path d="M205,228.17,83.39,298.39l249.15,143.8v17.58a17.11,17.11,0,0,1-8.36-2L76.11,314.55c-4.62-2.67-5.67-7.14-5.67-10.89s1-9.7,5.67-12.36L194.4,223A15.9,15.9,0,0,1,205,220.78v7.39Z" style="fill:#263238"></path><path d="M457,367.22l-247.63-143a14.75,14.75,0,0,0-13.31,0L80.64,290.91c-5,2.86-5,7.56,0,10.42L326.68,443.39a13,13,0,0,0,11.74,0L457,374.9C460.7,372.79,460.7,369.33,457,367.22Z" style="fill:#455a64"></path><path d="M217.39,235.54l230,132.79c3.48,2,3.49,5.29,0,7.3L340.46,437.37a13.92,13.92,0,0,1-12.63,0L96.14,303.6c-2.82-1.63-3.38-4.09-1.59-6,.14-.15.27-.29.43-.44a8.16,8.16,0,0,1,1.16-.81l30.08-17.37,2-1.13a4.33,4.33,0,0,1,3.92,0,4.51,4.51,0,0,0,4.06-.08l35.05-20.24c1.15-.66,1.22-1.71.14-2.33s-1.08-1.52-.2-2.15a.76.76,0,0,1,.19-.12l29.43-17,.62-.36C205.8,233,213,233,217.39,235.54Z" style="fill:#fafafa"></path><path d="M134.88,270.85,151,261.57a3.74,3.74,0,0,1,3.37-.06c.9.52.85,1.39-.11,1.94l-16.07,9.28a3.72,3.72,0,0,1-3.36.06C133.88,272.27,133.92,271.4,134.88,270.85Z" style="fill:#263238"></path><path d="M158.54,256.43a4.34,4.34,0,0,1,3.91,0,1.19,1.19,0,0,1,0,2.26,4.34,4.34,0,0,1-3.91,0A1.19,1.19,0,0,1,158.54,256.43Z" style="fill:#263238"></path><path d="M143.86,341a7.06,7.06,0,0,1,3.29,5.47,2,2,0,0,1-.91,1.92c-.39.22-1.89,1.12-2.31,1.35a2.41,2.41,0,0,1-2.37-.27l-20.22-11.67a7.09,7.09,0,0,1-3.29-5.48,2.09,2.09,0,0,1,.83-1.88c.41-.25,2-1.15,2.38-1.38a2.41,2.41,0,0,1,2.38.27Z" style="fill:#455a64"></path><path d="M141.56,342.32l-20.22-11.67c-1.82-1.06-3.29-.31-3.29,1.66a7.09,7.09,0,0,0,3.29,5.48l20.22,11.67c1.82,1.05,3.29.3,3.29-1.67A7.06,7.06,0,0,0,141.56,342.32Z" style="fill:#37474f"></path><path d="M108.48,320.56a7.06,7.06,0,0,1,3.29,5.47,2.05,2.05,0,0,1-.9,1.93c-.4.22-1.9,1.11-2.31,1.34a2.41,2.41,0,0,1-2.38-.27L86,317.36a7.07,7.07,0,0,1-3.3-5.47,2.1,2.1,0,0,1,.84-1.88c.4-.26,2-1.16,2.37-1.39a2.45,2.45,0,0,1,2.39.27Z" style="fill:#455a64"></path><path d="M106.18,321.89,86,310.22c-1.82-1.05-3.3-.3-3.3,1.67a7.07,7.07,0,0,0,3.3,5.47L106.18,329c1.82,1.05,3.3.31,3.3-1.67A7.07,7.07,0,0,0,106.18,321.89Z" style="fill:#37474f"></path></g></g><g id="freepik--speech-bubble--inject-19"><g id="freepik--speech-bubble--inject-19"><g id="freepik--speech-bubble--inject-19"><path d="M216.56,420.15l16.62,9.57,9.53-13.12a1.52,1.52,0,0,0,.3-.9c0-.91,0-7.81,0-8.1a1.52,1.52,0,0,0-1.88-1.49L216.54,412Z" style="fill:#1C94A4"></path><path d="M153.7,440.73l51.39,29.67a3,3,0,0,0,2.7,0l48.35-28a3,3,0,0,0,1.33-2.34v-5.46a3,3,0,0,0-1.36-2.35l-51.39-29.67a3,3,0,0,0-2.71,0l-48.34,28a2.94,2.94,0,0,0-1.34,2.34v5.47A3,3,0,0,0,153.7,440.73Z" style="fill:#1C94A4"></path><path d="M153.47,430.72c-.54.43-.47,1,.2,1.42l51.39,29.67a2.72,2.72,0,0,0,1.35.32l0,8.59a2.72,2.72,0,0,1-1.3-.32L153.7,440.73a3,3,0,0,1-1.37-2.34v-5.47A3,3,0,0,1,153.47,430.72Z" style="opacity:0.15"></path><path d="M242.7,408.48l-8.23,11.31,21.64,12.49a.83.83,0,0,1,0,1.57l-48.35,28a3,3,0,0,1-2.7,0l-51.39-29.67a.82.82,0,0,1,0-1.56l48.34-28a3,3,0,0,1,2.71,0l15,8.66,21.4-5.16A1.52,1.52,0,0,1,242.7,408.48Z" style="fill:#fafafa"></path><path d="M203.36,403.18a2,2,0,0,1,.91.2l15,8.66.31.18.35-.09,21.4-5.15a.47.47,0,0,1,.16,0,.62.62,0,0,1,.55.35.6.6,0,0,1-.05.65l-8.23,11.31-.58.8.86.49,21.63,12.5h0l-48.34,28a2.06,2.06,0,0,1-1.81,0l-51.4-29.67h0l48.34-28a2,2,0,0,1,.9-.2m0-.89a2.86,2.86,0,0,0-1.35.32l-48.34,28a.82.82,0,0,0,0,1.56l51.39,29.67a2.93,2.93,0,0,0,2.7,0l48.35-28a.83.83,0,0,0,0-1.57l-21.64-12.49,8.23-11.31a1.52,1.52,0,0,0-1.22-2.41,1.61,1.61,0,0,0-.37,0l-21.4,5.16-15-8.66a2.87,2.87,0,0,0-1.36-.32Z" style="fill:#1C94A4"></path></g><path d="M211.54,442.16c-2.09,1.2-2.09,3.16,0,4.36a8.33,8.33,0,0,0,7.56,0c2.08-1.2,2.08-3.16,0-4.36A8.39,8.39,0,0,0,211.54,442.16Zm5.85,3.38a4.58,4.58,0,0,1-4.14,0,1.27,1.27,0,0,1,0-2.4,4.6,4.6,0,0,1,4.15,0A1.26,1.26,0,0,1,217.39,445.54Zm10.73-13c-2.08,1.21-2.08,3.16,0,4.37a8.39,8.39,0,0,0,7.56,0c2.08-1.21,2.08-3.16,0-4.37A8.41,8.41,0,0,0,228.12,432.58ZM234,436a4.6,4.6,0,0,1-4.15,0,1.26,1.26,0,0,1,0-2.39,4.6,4.6,0,0,1,4.15,0A1.26,1.26,0,0,1,234,436Zm-11.39-11.75-12.15-7a2.2,2.2,0,0,0-2,0l-26.62,15.37-7.74-3a2.06,2.06,0,0,0-1.6.09l-4.74,2.74c-.47.27-.47.71,0,1a1.91,1.91,0,0,0,1.71,0l4.06-2.35,31.34,12.3a2,2,0,0,0,1.59-.09l23.65-13.65c.47-.28.47-.72,0-1a1.89,1.89,0,0,0-1.7,0l-23,13.26-4.09-1.6,21.36-14.91C223.14,425,223.1,424.51,222.59,424.21Zm-2.35.62-20.92,14.61-15.47-6.07,25.59-14.77Z" style="fill:#37474f"></path></g></g><g id="freepik--Label--inject-19"><g id="freepik--label--inject-19"><path d="M152,216.78h.1a1,1,0,0,0,.9-1.1c-1.17-12-9.51-19.19-14.38-22.4-7.32-4.83-16.23-7-21.67-5.28a1,1,0,0,0,.61,1.92c4.82-1.53,13.21.59,20,5,4.56,3,12.39,9.73,13.48,20.92A1,1,0,0,0,152,216.78Z" style="fill:#455a64"></path><g id="freepik--label--inject-19"><g id="freepik--label--inject-19"><path d="M45.24,124.48v47.4l61.86,35.68,1.85-1.07,16.42-14.22L109,159.08,47.09,123.41Zm65.58,63.38a3.63,3.63,0,0,1-1.71-.52,8.71,8.71,0,0,1-3.94-6.83,3.61,3.61,0,0,1,.39-1.72,3.45,3.45,0,0,1,1.7.52,8.7,8.7,0,0,1,3.94,6.83A3.5,3.5,0,0,1,110.82,187.86Z" style="fill:#1C94A4"></path><path d="M45.24,124.48v47.4l61.86,35.68,16.42-14.22L107.1,160.16Zm58.08,57.1c0-2.51,1.77-3.53,3.94-2.27a8.7,8.7,0,0,1,3.94,6.83c0,2.51-1.76,3.53-3.94,2.27A8.71,8.71,0,0,1,103.32,181.58Z" style="fill:#1C94A4"></path><g style="opacity:0.30000000000000004"><path d="M103.32,181.58a8.71,8.71,0,0,0,3.94,6.83c1.58.91,2.94.63,3.56-.55h0a3.66,3.66,0,0,1-1.71-.52,8.73,8.73,0,0,1-3.94-6.83,3.57,3.57,0,0,1,.39-1.71,2,2,0,0,0-1.48.56A3,3,0,0,0,103.32,181.58Z"></path></g><g style="opacity:0.30000000000000004"><polygon points="45.24 124.48 47.09 123.41 108.95 159.08 107.1 160.16 45.24 124.48" style="fill:#fff"></polygon></g><g style="opacity:0.15"><polygon points="107.1 160.16 123.52 193.34 125.37 192.27 108.95 159.08 107.1 160.16"></polygon></g><g style="opacity:0.30000000000000004"><polygon points="123.52 193.34 107.1 207.56 108.95 206.49 125.37 192.27 123.52 193.34"></polygon></g></g><path d="M116.05,200a12.13,12.13,0,0,0,2.85-.35,1,1,0,0,0-.48-2,8.21,8.21,0,0,1-9.83-4.7c-1-2.45-1.09-6,2.2-8.14a1,1,0,0,0,.31-1.4,1,1,0,0,0-1.39-.31c-4.09,2.6-4.44,7.22-3,10.64A10.08,10.08,0,0,0,116.05,200Z" style="fill:#455a64"></path></g><path d="M52.79,162.46a14.78,14.78,0,0,1-2.33-2.89l1.16-3.35a15.64,15.64,0,0,0,2,2.5,9.71,9.71,0,0,0,2.18,1.79q2,1.17,2-.39a2.46,2.46,0,0,0-.58-1.57,18.39,18.39,0,0,0-1.87-1.92A31,31,0,0,1,53,154.26a10,10,0,0,1-1.62-2.66,8.88,8.88,0,0,1-.69-3.59,5.52,5.52,0,0,1,.63-2.83A2.29,2.29,0,0,1,53.17,144a5.46,5.46,0,0,1,3.06.93,13.65,13.65,0,0,1,2.43,1.84,14.21,14.21,0,0,1,2.11,2.47l-1.09,3.42a11.89,11.89,0,0,0-3.47-3.49c-.71-.41-1.22-.54-1.54-.41s-.49.46-.49,1a2.34,2.34,0,0,0,.58,1.49,18.1,18.1,0,0,0,1.84,1.86A26.33,26.33,0,0,1,59,155.49a10.19,10.19,0,0,1,1.63,2.65,8.79,8.79,0,0,1,.69,3.58,5.45,5.45,0,0,1-.62,2.78,2.35,2.35,0,0,1-1.88,1.16,5.37,5.37,0,0,1-3-.92A14.45,14.45,0,0,1,52.79,162.46Z" style="fill:#fafafa"></path><path d="M71.32,169.6,66,166.54l-1,3.18-3.61-2.09L67,151.53l3.49,2L76,176.05l-3.68-2.13Zm-1-4.62-1.61-7.11-1.61,5.25Z" style="fill:#fafafa"></path><path d="M77,157.33l3.54,2v15l6,3.45v4.33L77,176.63Z" style="fill:#fafafa"></path><path d="M98,184.53v4.22l-10.06-5.81v-19.3l9.83,5.67v4.22l-6.32-3.65v3.25L97,176.35v4.08l-5.57-3.22v3.53Z" style="fill:#fafafa"></path></g></g><g id="freepik--gifts-2--inject-19"><g id="freepik--Bag--inject-19"><polygon points="361.12 366.08 291.91 326.19 327.54 305.63 396.76 345.52 361.12 366.08" style="fill:#e0e0e0"></polygon><g id="freepik--bag--inject-19"><g id="freepik--dark-bag--inject-19"><polygon points="302.08 327.33 308.28 239.26 317.69 235.83 323.76 230.32 329.96 311.24 302.08 327.33" style="fill:#1C94A4"></polygon><polygon points="302.08 327.33 308.28 239.26 317.76 235.79 323.76 230.32 329.96 311.24 302.08 327.33" style="opacity:0.2"></polygon><polygon points="317.76 235.79 317.76 318.29 329.96 311.24 323.76 230.32 317.76 235.79" style="opacity:0.2"></polygon><polygon points="382.6 264.29 388.8 345.21 329.96 311.24 323.76 230.32 382.6 264.29" style="fill:#1C94A4"></polygon><polygon points="382.6 264.29 388.8 345.21 329.96 311.24 323.76 230.32 382.6 264.29" style="opacity:0.30000000000000004"></polygon><polygon points="382.6 264.29 372.5 267.4 367.12 273.23 360.92 361.31 388.8 345.21 382.6 264.29" style="fill:#1C94A4"></polygon><polygon points="382.6 264.29 372.5 267.4 367.12 273.23 360.92 361.31 388.8 345.21 382.6 264.29" style="opacity:0.15"></polygon><polygon points="360.92 361.31 372.42 345.17 373.09 267.65 375.29 344.19 388.8 345.21 360.92 361.31" style="opacity:0.15"></polygon><path d="M302.08,327.33l58.84,34,6.2-88.08-58.84-34Zm44.45-56.49c0-1.29.9-1.82,2-1.18a4.42,4.42,0,0,1,2,3.47c0,1.27-.9,1.8-2,1.17A4.41,4.41,0,0,1,346.53,270.84Zm-21.67-12.42c0-1.29.89-1.82,2-1.18a4.44,4.44,0,0,1,2,3.47c0,1.27-.9,1.8-2,1.17A4.38,4.38,0,0,1,324.86,258.42Z" style="fill:#1C94A4"></path></g><path d="M347.87,223.43c2.2-1.27,4.9-1.11,7.61.45,6.23,3.6,11.3,14,11.3,23.19v14.27a1,1,0,0,1-2,0V247.07c0-8.56-4.63-18.2-10.32-21.48-2.1-1.22-4.05-1.37-5.64-.45-2.34,1.35-3.69,4.8-3.69,9.45v14.17a1,1,0,0,1-2,0V234.59C343.19,229.21,344.89,225.15,347.87,223.43Z" style="fill:#263238"></path><path d="M330.47,233.33c2.2-1.27,4.9-1.11,7.6.45,6.24,3.6,11.31,14,11.31,23.19v14.27a1,1,0,0,1-2,0V257c0-8.56-4.63-18.19-10.32-21.48-2.1-1.21-4-1.37-5.64-.45-2.35,1.35-3.69,4.8-3.69,9.45v14.17a1,1,0,0,1-2,0V244.49C325.79,239.12,327.49,235.05,330.47,233.33Z" style="fill:#37474f"></path></g></g><g id="freepik--Gift--inject-19"><polygon points="395.61 398.89 442.92 371.58 396.28 344.65 348.97 371.96 395.61 398.89" style="fill:#e0e0e0"></polygon><g id="freepik--gift--inject-19"><polygon points="395.42 394.93 435.72 371.64 435.72 339.43 436.57 338.94 436.57 327.06 395.43 350.82 395.42 394.93" style="fill:#1C94A4"></polygon><g style="opacity:0.45"><polygon points="395.42 394.93 435.72 371.64 435.72 339.43 436.57 338.94 436.57 327.06 395.43 350.82 395.42 394.93" style="fill:#fff"></polygon></g><polygon points="395.43 362.7 410.85 353.79 435.72 339.43 435.72 341.14 395.43 364.4 395.43 362.7" style="opacity:0.15"></polygon><polygon points="395.43 394.93 355.35 371.81 355.35 339.56 354.28 338.94 354.28 327.06 395.43 350.82 395.43 394.93" style="fill:#1C94A4"></polygon><polygon points="395.43 394.93 355.35 371.81 355.35 339.56 354.28 338.94 354.28 327.06 395.43 350.82 395.43 394.93" style="fill:#fff;opacity:0.30000000000000004"></polygon><polygon points="355.34 339.56 395.43 362.7 395.43 364.4 355.34 341.29 355.34 339.56" style="opacity:0.1"></polygon><polygon points="354.28 327.06 395.42 303.31 436.57 327.06 395.43 350.82 354.28 327.06" style="fill:#1C94A4"></polygon><g style="opacity:0.6000000000000001"><polygon points="354.28 327.06 395.42 303.31 436.57 327.06 395.43 350.82 354.28 327.06" style="fill:#fff"></polygon></g><polygon points="378.71 385.29 378.71 341.17 372.03 337.31 372.03 381.43 378.71 385.29" style="fill:#ebebeb"></polygon><polygon points="378.71 385.29 378.71 341.17 372.03 337.31 372.03 381.43 378.71 385.29" style="fill:#1C94A4"></polygon><polygon points="378.71 385.29 378.71 341.17 372.03 337.31 372.03 381.43 378.71 385.29" style="opacity:0.4"></polygon><polygon points="412.14 385.29 412.14 341.17 418.82 337.31 418.82 381.43 412.14 385.29" style="fill:#1C94A4"></polygon><polygon points="412.14 385.29 412.14 341.17 418.82 337.31 418.82 381.43 412.14 385.29" style="opacity:0.15"></polygon><polygon points="372.03 337.31 413.18 313.56 419.86 317.42 378.71 341.17 372.03 337.31" style="fill:#1C94A4"></polygon><polygon points="394.88 331.84 388.19 327.98 394.88 324.12 401.56 327.98 394.88 331.84" style="opacity:0.25"></polygon><polygon points="412.14 341.17 370.99 317.42 377.67 313.56 418.82 337.31 412.14 341.17" style="fill:#1C94A4"></polygon><path d="M414.69,315.89c-.66,2.8-4.74,10.95-17.72,11.83l-1.32-1.16s15.08-3.77,11.8-17Z" style="fill:#1C94A4"></path><path d="M414.69,315.89c-.66,2.8-4.74,10.95-17.72,11.83l-1.32-1.16s15.08-3.77,11.8-17Z" style="opacity:0.4"></path><path d="M395.5,329.26s0-8,3-12.7,8.92-7,8.92-7a18.82,18.82,0,0,1,7.24,6.31,24.55,24.55,0,0,0-10.44,2.65c-5.08,2.69-7.28,9.18-7.28,9.18Z" style="fill:#1C94A4"></path><path d="M395.5,329.26s0-8,3-12.7,8.92-7,8.92-7a18.82,18.82,0,0,1,7.24,6.31,24.55,24.55,0,0,0-10.44,2.65c-5.08,2.69-7.28,9.18-7.28,9.18Z" style="opacity:0.15"></path><path d="M404.38,318.48l-5.25-2.77a16.37,16.37,0,0,1,3-3l6.93,4A22.08,22.08,0,0,0,404.38,318.48Z" style="fill:#1C94A4"></path><path d="M415.65,330.56a39.16,39.16,0,0,1-20.15-1.3l.86-1.54s5.87,1,10,0,7.69-6.89,7.69-6.89Z" style="fill:#1C94A4"></path><path d="M415.65,330.56a39.16,39.16,0,0,1-20.15-1.3l.86-1.54s5.87,1,10,0,7.69-6.89,7.69-6.89Z" style="opacity:0.4"></path><path d="M395.5,329.26s.1-2.19,3.19-5.06c4-3.75,11.93-3.75,15.38-3.37a7,7,0,0,1,2.66,4.37c.42,2.14-1.08,5.36-1.08,5.36a12.94,12.94,0,0,0-9.23-4.63,12.67,12.67,0,0,0-9,2.76Z" style="fill:#1C94A4"></path><path d="M395.5,329.26s.1-2.19,3.19-5.06c4-3.75,11.93-3.75,15.38-3.37a7,7,0,0,1,2.66,4.37c.42,2.14-1.08,5.36-1.08,5.36a12.94,12.94,0,0,0-9.23-4.63,12.67,12.67,0,0,0-9,2.76Z" style="opacity:0.15"></path><path d="M407.46,320.88a30.8,30.8,0,0,1,4-.2,7.59,7.59,0,0,1,1.81,7.64,13.28,13.28,0,0,0-4.12-1.93A8.84,8.84,0,0,0,407.46,320.88Z" style="fill:#1C94A4"></path><path d="M407.13,340.9a13.65,13.65,0,0,1-7.81-4,16.91,16.91,0,0,1-3.82-7.59l1.47-1.54a11.63,11.63,0,0,0,5.74,5.93c3.4,1.51,9.75,1.49,9.75,1.49Z" style="fill:#1C94A4"></path><path d="M407.13,340.9a13.65,13.65,0,0,1-7.81-4,16.91,16.91,0,0,1-3.82-7.59l1.47-1.54a11.63,11.63,0,0,0,5.74,5.93c3.4,1.51,9.75,1.49,9.75,1.49Z" style="opacity:0.4"></path><path d="M395.5,329.26l1.47-1.54s5.7-1.15,8.77,0,6.66,5.95,6.72,7.42a9,9,0,0,1-5.33,5.76s.3-5.25-3.65-8.32A15.94,15.94,0,0,0,395.5,329.26Z" style="fill:#1C94A4"></path><path d="M395.5,329.26l1.47-1.54s5.7-1.15,8.77,0,6.66,5.95,6.72,7.42a9,9,0,0,1-5.33,5.76s.3-5.25-3.65-8.32A15.94,15.94,0,0,0,395.5,329.26Z" style="opacity:0.15"></path><path d="M401.44,331.25l5-3.18a12.49,12.49,0,0,1,3,2.4l-4.92,3.11a8.44,8.44,0,0,0-1.06-1A17.24,17.24,0,0,0,401.44,331.25Z" style="fill:#1C94A4"></path><path d="M381.09,315.11c-.31,1.53.81,5.75,4.54,8.54s10,3.82,10,3.82l.9-.54s-6.25-3.92-8.27-7.51-.54-9.34-.54-9.34Z" style="fill:#1C94A4"></path><path d="M381.09,315.11c-.31,1.53.81,5.75,4.54,8.54s10,3.82,10,3.82l.9-.54s-6.25-3.92-8.27-7.51-.54-9.34-.54-9.34Z" style="opacity:0.4"></path><path d="M395.65,327.47a18.09,18.09,0,0,0-6.25-8.82c-4.67-3.31-8.31-3.54-8.31-3.54a10.81,10.81,0,0,1,6.65-5s5.33,3.14,7.36,7.94a19,19,0,0,1,1.45,8.91Z" style="fill:#1C94A4"></path><path d="M395.65,327.47a18.09,18.09,0,0,0-6.25-8.82c-4.67-3.31-8.31-3.54-8.31-3.54a10.81,10.81,0,0,1,6.65-5s5.33,3.14,7.36,7.94a19,19,0,0,1,1.45,8.91Z" style="opacity:0.15"></path><path d="M387,317.18a20.7,20.7,0,0,0-3.21-1.43,17,17,0,0,1,6-4.21,22.07,22.07,0,0,1,3.15,3A12.78,12.78,0,0,0,387,317.18Z" style="fill:#1C94A4"></path><path d="M375.73,325.09c1.83,2.47,8.16,6.58,19.24,3.23l.68-1.3s-6.3.49-11.49-2.16-5.58-6.21-5.58-6.21Z" style="fill:#1C94A4"></path><path d="M375.73,325.09c1.83,2.47,8.16,6.58,19.24,3.23l.68-1.3s-6.3.49-11.49-2.16-5.58-6.21-5.58-6.21Z" style="opacity:0.4"></path><path d="M395.65,327a16.17,16.17,0,0,0-7.66-7.1,16.91,16.91,0,0,0-9.41-1.27s-3.27,2.57-2.85,6.44a15.92,15.92,0,0,1,9.2-1.4c5.27.77,9.39,3.15,10,4.63Z" style="fill:#1C94A4"></path><path d="M395.65,327a16.17,16.17,0,0,0-7.66-7.1,16.91,16.91,0,0,0-9.41-1.27s-3.27,2.57-2.85,6.44a15.92,15.92,0,0,1,9.2-1.4c5.27.77,9.39,3.15,10,4.63Z" style="opacity:0.15"></path><path d="M381.16,323.6a16.34,16.34,0,0,0-3.77.8,11.61,11.61,0,0,1,3.66-5.94,18.43,18.43,0,0,1,2.37.2A10.85,10.85,0,0,0,381.16,323.6Z" style="fill:#1C94A4"></path><path d="M382.72,342.14c2.86.08,11.81-4,12.78-12.88l-1-2.14s-2.11,4.93-6.15,7.19-9.92,2.21-9.92,2.21Z" style="fill:#1C94A4"></path><path d="M382.72,342.14c2.86.08,11.81-4,12.78-12.88l-1-2.14s-2.11,4.93-6.15,7.19-9.92,2.21-9.92,2.21Z" style="opacity:0.4"></path><path d="M395.65,327s-5.1-.12-8.61,1.3c-6.21,2.5-8.3,5.46-8.57,8.2a10.34,10.34,0,0,0,4.25,5.62s2.54-6.62,5.67-9.41c4.17-3.71,7.11-3.47,7.11-3.47Z" style="fill:#1C94A4"></path><path d="M395.65,327s-5.1-.12-8.61,1.3c-6.21,2.5-8.3,5.46-8.57,8.2a10.34,10.34,0,0,0,4.25,5.62s2.54-6.62,5.67-9.41c4.17-3.71,7.11-3.47,7.11-3.47Z" style="opacity:0.15"></path><path d="M383.49,340.34a20.06,20.06,0,0,1-4.63-5.4,8.57,8.57,0,0,1,2.92-3.72,12.08,12.08,0,0,0,5.32,2.91A31.53,31.53,0,0,0,383.49,340.34Z" style="fill:#1C94A4"></path></g></g></g><g id="freepik--numbers-1--inject-19"><g id="freepik--Box--inject-19"><polygon points="245.64 330.22 300.41 298.57 300.41 225.36 301.32 224.84 301.32 212.09 245.64 244.24 245.64 330.22" style="fill:#f0f0f0"></polygon><polygon points="245.64 256.98 262.19 247.43 300.41 225.36 300.41 227.19 245.64 258.81 245.64 256.98" style="opacity:0.15"></polygon><polygon points="245.64 330.22 202.64 305.41 202.64 232.15 201.49 231.49 201.49 218.75 245.64 244.24 245.64 330.22" style="fill:#e0e0e0"></polygon><polygon points="202.64 232.15 245.64 256.98 245.64 258.81 202.64 234.01 202.64 232.15" style="opacity:0.1"></polygon><polygon points="201.49 218.75 257.17 186.6 301.32 212.09 245.64 244.24 201.49 218.75" style="fill:#fafafa"></polygon></g><g id="freepik--2--inject-19"><path d="M275,165.61q6.44-12.84,8.75-21.45a69.15,69.15,0,0,0,2.4-17.81q0-9.82-3.53-15.36a13.25,13.25,0,0,0-4.26-4.27h0l-16.09-9.29h0a12.33,12.33,0,0,0-5.42-1.63q-6.3-.45-14.45,4.26a56.48,56.48,0,0,0-18.28,17.13,83.79,83.79,0,0,0-11.5,24.57L228.56,151l12.08,2.32-24,48v21.94l16,9.2,55.14-31.83V173Z" style="fill:#1C94A4"></path><path d="M262.86,143.13a27.35,27.35,0,0,1-1.08,7.13,63,63,0,0,1-4.32,10.51l-24.87,49.76-15.94-9.2,24-48,5.42,1a32.6,32.6,0,0,1,4.22-9.7,18.36,18.36,0,0,1,5.89-6c2.18-1.25,3.83-1.47,5-.67S262.86,140.51,262.86,143.13Z" style="opacity:0.15"></path><path d="M287.73,173v27.69l-55.14,31.83V210.54l24.87-49.77a62.69,62.69,0,0,0,4.32-10.51,27.35,27.35,0,0,0,1.08-7.13c0-2.62-.57-4.34-1.72-5.14s-2.8-.57-5,.67a18.59,18.59,0,0,0-5.9,6,32.82,32.82,0,0,0-4.22,9.7L228.56,151a83.79,83.79,0,0,1,11.5-24.57,56.62,56.62,0,0,1,18.28-17.14q8.16-4.71,14.45-4.25a12.2,12.2,0,0,1,9.83,6q3.53,5.54,3.53,15.36a69.15,69.15,0,0,1-2.4,17.81q-2.42,9-9.39,22.74l-9.83,19.45Z" style="fill:#fafafa"></path><path d="M258.35,109.27a56.41,56.41,0,0,0-18.29,17.13A83.71,83.71,0,0,0,228.56,151l-15.94-9.21a83.4,83.4,0,0,1,11.49-24.57,56.48,56.48,0,0,1,18.28-17.13c5.43-3.14,10.25-4.57,14.45-4.25a12.32,12.32,0,0,1,5.42,1.62h0l15.49,8.95a12.6,12.6,0,0,0-5-1.36Q266.5,104.57,258.35,109.27Z" style="fill:#fff;opacity:0.15"></path><path d="M271.67,106.29c.34,0,.69,0,1,0a10.9,10.9,0,0,1,8.82,5.38c2.21,3.45,3.33,8.38,3.33,14.65a67.84,67.84,0,0,1-2.36,17.47c-1.58,5.91-4.7,13.48-9.29,22.49l-9.83,19.44a1.32,1.32,0,0,0,.27,1.55,1.34,1.34,0,0,0,.9.35,1.3,1.3,0,0,0,.66-.17l21.23-12.26v24.67L233.9,230.21V210.84l24.73-49.49A63.89,63.89,0,0,0,263,150.6a28.62,28.62,0,0,0,1.13-7.47c0-3.11-.74-5.14-2.28-6.21a4,4,0,0,0-2.32-.7,8.32,8.32,0,0,0-4,1.31,19.86,19.86,0,0,0-6.33,6.39,33.41,33.41,0,0,0-4.07,8.91L230.23,150a82.33,82.33,0,0,1,10.91-22.81A55.39,55.39,0,0,1,259,110.41c4.73-2.74,9-4.12,12.67-4.12m0-1.31q-5.9,0-13.33,4.29a56.62,56.62,0,0,0-18.28,17.14A83.79,83.79,0,0,0,228.56,151l17.5,3.36a32.82,32.82,0,0,1,4.22-9.7,18.59,18.59,0,0,1,5.9-6,7.08,7.08,0,0,1,3.39-1.14,2.7,2.7,0,0,1,1.57.47c1.15.8,1.72,2.52,1.72,5.14a27.35,27.35,0,0,1-1.08,7.13,62.69,62.69,0,0,1-4.32,10.51l-24.87,49.77v21.93l55.14-31.83V173l-23.2,13.4,9.83-19.45q7-13.71,9.39-22.74a69.15,69.15,0,0,0,2.4-17.81q0-9.82-3.53-15.36a12.2,12.2,0,0,0-9.83-6c-.37,0-.75,0-1.12,0Z" style="fill:#1C94A4"></path><polygon points="232.59 232.47 232.59 210.54 216.64 201.33 216.64 223.27 232.59 232.47" style="opacity:0.25"></polygon><path d="M287.73,173l-23.19,13.39,9.83-19.45c.22-.43.43-.87.64-1.29Z" style="fill:#fff;opacity:0.15"></path></g><g id="freepik--box--inject-19"><polygon points="188.05 347.08 226.48 324.86 226.48 230.5 227.39 229.97 227.39 217.23 188.06 239.95 188.05 347.08" style="fill:#f0f0f0"></polygon><polygon points="188.06 252.69 204.61 243.14 226.48 230.5 226.48 232.33 188.06 254.52 188.06 252.69" style="opacity:0.15"></polygon><polygon points="188.06 347.08 145.06 322.27 145.06 227.86 143.91 227.2 143.91 214.46 188.06 239.95 188.06 347.08" style="fill:#e0e0e0"></polygon><polygon points="145.05 227.86 188.06 252.69 188.06 254.52 145.05 229.72 145.05 227.86" style="opacity:0.1"></polygon><polygon points="143.91 214.46 183.24 191.74 227.39 217.23 188.06 239.95 143.91 214.46" style="fill:#fafafa"></polygon></g><g id="freepik--1--inject-19"><polygon points="188.01 92.79 153.03 112.98 153.03 139.92 164.82 133.11 164.82 212.09 180.77 221.3 203.96 207.91 203.96 101.99 188.01 92.79" style="fill:#1C94A4"></polygon><polygon points="188.01 92.79 153.03 112.98 153.03 139.92 164.82 133.11 164.82 212.09 180.77 221.3 203.96 207.91 203.96 101.99 188.01 92.79" style="fill:#fff;opacity:0.15"></polygon><path d="M204,102V207.91L180.77,221.3v-79L169,149.13V122.19Z" style="fill:#fafafa"></path><path d="M202.65,104.26V207.15L182.08,219V142.32a1.32,1.32,0,0,0-.66-1.14,1.37,1.37,0,0,0-.65-.17,1.41,1.41,0,0,0-.66.17l-9.83,5.68V123l32.37-18.69M204,102l-35,20.2v26.94l11.79-6.81v79L204,207.91V102Z" style="fill:#1C94A4"></path><polygon points="153.03 139.92 168.97 149.13 168.97 122.19 153.03 112.98 153.03 139.92" style="fill:#1C94A4"></polygon><polygon points="164.82 212.09 180.77 221.3 180.77 142.32 168.97 149.13 164.82 146.73 164.82 212.09" style="fill:#1C94A4"></polygon><polygon points="164.82 212.09 180.77 221.3 180.77 142.32 168.97 149.13 164.82 146.73 164.82 212.09" style="opacity:0.25"></polygon><polygon points="153.03 112.98 168.97 122.19 168.97 149.13 153.03 139.92 153.03 112.98" style="opacity:0.15"></polygon></g></g><g id="freepik--numbers-2--inject-19"><g id="freepik--2--inject-19"><polygon points="285.71 392.13 348.49 355.97 326.23 343.18 263.44 379.34 285.71 392.13" style="fill:#e0e0e0"></polygon><g id="freepik--2--inject-19"><path d="M328.12,320.93c4.29-8.55,7.21-15.72,8.74-21.45a68.74,68.74,0,0,0,2.41-17.81q0-9.82-3.54-15.36a13.25,13.25,0,0,0-4.26-4.27h0l-16.09-9.29h0a12.42,12.42,0,0,0-5.42-1.63q-6.29-.45-14.44,4.26a56.28,56.28,0,0,0-18.28,17.13,83.54,83.54,0,0,0-11.5,24.57l15.95,9.21,12.07,2.32-24,48v21.94l15.95,9.21L340.84,356V328.28Z" style="fill:#455a64"></path><path d="M316,298.45a27.39,27.39,0,0,1-1.09,7.13,63,63,0,0,1-4.32,10.51L285.7,365.85l-15.94-9.2,24-48,5.42,1.05a32.72,32.72,0,0,1,4.23-9.7,18.17,18.17,0,0,1,5.89-6c2.17-1.25,3.82-1.47,5-.67S316,295.83,316,298.45Z" style="fill:#37474f"></path><path d="M340.84,328.28V356L285.71,387.8V365.86l24.86-49.77a62.69,62.69,0,0,0,4.32-10.51,27.33,27.33,0,0,0,1.09-7.13c0-2.62-.58-4.33-1.72-5.14s-2.8-.57-5,.68a18.42,18.42,0,0,0-5.89,6,32.58,32.58,0,0,0-4.23,9.7l-17.49-3.36a83.54,83.54,0,0,1,11.5-24.57,56.42,56.42,0,0,1,18.28-17.14q8.15-4.71,14.44-4.25a12.2,12.2,0,0,1,9.83,6q3.54,5.54,3.54,15.36a68.74,68.74,0,0,1-2.41,17.81q-2.42,9-9.39,22.74l-9.82,19.45Z" style="fill:#1C94A4"></path><path d="M340.84,328.28V356L285.71,387.8V365.86l24.86-49.77a62.69,62.69,0,0,0,4.32-10.51,27.33,27.33,0,0,0,1.09-7.13c0-2.62-.58-4.33-1.72-5.14s-2.8-.57-5,.68a18.42,18.42,0,0,0-5.89,6,32.58,32.58,0,0,0-4.23,9.7l-17.49-3.36a83.54,83.54,0,0,1,11.5-24.57,56.42,56.42,0,0,1,18.28-17.14q8.15-4.71,14.44-4.25a12.2,12.2,0,0,1,9.83,6q3.54,5.54,3.54,15.36a68.74,68.74,0,0,1-2.41,17.81q-2.42,9-9.39,22.74l-9.82,19.45Z" style="fill:#fff;opacity:0.8"></path><path d="M324.78,261.61c.35,0,.69,0,1,0a10.91,10.91,0,0,1,8.82,5.38c2.21,3.45,3.33,8.38,3.33,14.65a67.86,67.86,0,0,1-2.37,17.47c-1.57,5.91-4.7,13.48-9.28,22.49l-9.83,19.45a1.31,1.31,0,0,0,.27,1.54,1.33,1.33,0,0,0,.9.36,1.28,1.28,0,0,0,.65-.18l21.23-12.26v24.67L287,385.53V366.17l24.73-49.5a64.09,64.09,0,0,0,4.42-10.75,28.57,28.57,0,0,0,1.12-7.47c0-3.1-.74-5.13-2.28-6.21a4,4,0,0,0-2.32-.7,8.26,8.26,0,0,0-4,1.31,19.79,19.79,0,0,0-6.34,6.39,33.4,33.4,0,0,0-4.06,8.91l-14.9-2.87a82.61,82.61,0,0,1,10.91-22.81,55.39,55.39,0,0,1,17.86-16.74c4.74-2.74,9-4.12,12.67-4.12m0-1.31c-3.92,0-8.37,1.43-13.32,4.29a56.42,56.42,0,0,0-18.28,17.14,83.54,83.54,0,0,0-11.5,24.57l17.49,3.36a32.58,32.58,0,0,1,4.23-9.7,18.42,18.42,0,0,1,5.89-6,7.12,7.12,0,0,1,3.39-1.14,2.72,2.72,0,0,1,1.58.46c1.14.81,1.72,2.52,1.72,5.14a27.33,27.33,0,0,1-1.09,7.13,62.69,62.69,0,0,1-4.32,10.51l-24.86,49.77V387.8L340.84,356V328.28l-23.19,13.39,9.82-19.45q7-13.71,9.39-22.74a69.17,69.17,0,0,0,2.41-17.81q0-9.82-3.54-15.36a12.2,12.2,0,0,0-9.83-6c-.37,0-.74,0-1.12,0Z" style="fill:#455a64"></path><polygon points="285.71 387.8 285.71 365.86 269.76 356.65 269.76 378.59 285.71 387.8" style="fill:#263238"></polygon></g></g><g id="freepik--1--inject-19"><polygon points="234.14 380.03 262.64 363.64 240.38 350.85 211.88 367.24 234.14 380.03" style="fill:#e0e0e0"></polygon><g id="freepik--2zz--inject-19"><polygon points="241.11 248 206.13 268.19 206.13 295.13 217.92 288.32 217.92 367.3 233.87 376.51 257.06 363.12 257.06 257.2 241.11 248" style="fill:#455a64"></polygon><path d="M257.06,257.2V363.12l-23.19,13.39v-79l-11.79,6.81V277.4Z" style="fill:#1C94A4"></path><path d="M257.06,257.2V363.12l-23.19,13.39v-79l-11.79,6.81V277.4Z" style="fill:#fff;opacity:0.8"></path><path d="M255.75,259.47V362.36l-20.57,11.88V297.53a1.32,1.32,0,0,0-.66-1.14,1.33,1.33,0,0,0-1.3,0l-9.83,5.68V278.16l32.36-18.69m1.31-2.27-35,20.2v26.94l11.79-6.81v79l23.19-13.39V257.2Z" style="fill:#455a64"></path><polygon points="206.13 295.13 222.08 304.33 222.08 277.4 206.13 268.19 206.13 295.13" style="fill:#37474f"></polygon><polygon points="217.92 367.3 233.87 376.51 233.87 297.53 222.08 304.33 217.92 301.94 217.92 367.3" style="fill:#263238"></polygon></g></g></g><g id="freepik--gifts-1--inject-19"><g id="freepik--bag--inject-19"><g id="freepik--dark-bag--inject-19"><polygon points="115.07 367.59 108.43 272.63 98.35 268.96 91.84 263.05 85.2 350.35 115.07 367.59" style="fill:#1C94A4"></polygon><polygon points="115.07 367.59 108.43 272.63 98.27 268.91 91.84 263.05 85.2 350.35 115.07 367.59" style="opacity:0.2"></polygon><polygon points="98.27 268.91 98.27 357.89 85.2 350.35 91.84 263.05 98.27 268.91" style="opacity:0.2"></polygon><polygon points="28.8 299.45 22.16 386.75 85.2 350.35 91.84 263.05 28.8 299.45" style="fill:#1C94A4"></polygon><polygon points="28.8 299.45 22.16 386.75 85.2 350.35 91.84 263.05 28.8 299.45" style="opacity:0.30000000000000004"></polygon><polygon points="28.8 299.45 39.62 302.78 45.39 309.03 52.02 403.99 22.16 386.75 28.8 299.45" style="fill:#1C94A4"></polygon><polygon points="28.8 299.45 39.62 302.78 45.39 309.03 52.02 403.99 22.16 386.75 28.8 299.45" style="opacity:0.15"></polygon><polygon points="52.02 403.99 39.71 386.7 38.99 303.05 36.63 385.65 22.16 386.75 52.02 403.99" style="opacity:0.15"></polygon><path d="M108.43,272.63l-63,36.4L52,404l63-36.4ZM65.3,310.17c-1.19.68-2.15.11-2.15-1.25a4.75,4.75,0,0,1,2.15-3.72c1.18-.68,2.14-.12,2.14,1.26A4.7,4.7,0,0,1,65.3,310.17Zm23.22-13.3c-1.18.67-2.14.11-2.14-1.26a4.73,4.73,0,0,1,2.14-3.71c1.19-.69,2.15-.12,2.15,1.25A4.72,4.72,0,0,1,88.52,296.87Z" style="fill:#1C94A4"></path></g><path d="M66,255.67c-2.36-1.36-5.25-1.19-8.15.48-6.68,3.86-12.11,15-12.11,24.85v15.28a1.06,1.06,0,1,0,2.11,0V281c0-9.17,5-19.5,11-23,2.26-1.3,4.34-1.47,6-.48,2.51,1.45,4,5.14,4,10.12v15.19a1.06,1.06,0,0,0,2.11,0V267.62C71,261.87,69.2,257.51,66,255.67Z" style="fill:#263238"></path><path d="M84.65,266.28c-2.35-1.36-5.25-1.19-8.14.48-6.68,3.86-12.12,15-12.12,24.85v15.28a1.06,1.06,0,1,0,2.11,0V291.61c0-9.17,5-19.5,11.06-23,2.25-1.3,4.34-1.47,6-.48,2.52,1.45,4,5.14,4,10.12v15.19a1.06,1.06,0,0,0,2.11,0V278.23C89.67,272.48,87.84,268.12,84.65,266.28Z" style="fill:#37474f"></path></g><g id="freepik--gift--inject-19"><polygon points="143.31 409.69 184.53 385.87 184.53 330.34 185.4 329.84 185.4 317.69 143.31 341.99 143.31 409.69" style="fill:#1C94A4"></polygon><g style="opacity:0.45"><polygon points="143.31 409.69 184.53 385.87 184.53 330.34 185.4 329.84 185.4 317.69 143.31 341.99 143.31 409.69" style="fill:#fff"></polygon></g><polygon points="143.31 354.14 159.09 345.03 184.53 330.34 184.53 332.09 143.31 355.88 143.31 354.14" style="opacity:0.15"></polygon><polygon points="143.31 409.69 102.32 386.04 102.32 330.47 101.23 329.84 101.23 317.69 143.31 341.99 143.31 409.69" style="fill:#1C94A4"></polygon><polygon points="143.31 409.69 102.32 386.04 102.32 330.47 101.23 329.84 101.23 317.69 143.31 341.99 143.31 409.69" style="fill:#fff;opacity:0.30000000000000004"></polygon><polygon points="102.31 330.47 143.31 354.14 143.31 355.88 102.31 332.24 102.31 330.47" style="opacity:0.1"></polygon><polygon points="101.23 317.69 143.31 293.39 185.4 317.69 143.31 341.99 101.23 317.69" style="fill:#1C94A4"></polygon><g style="opacity:0.6000000000000001"><polygon points="101.23 317.69 143.31 293.39 185.4 317.69 143.31 341.99 101.23 317.69" style="fill:#fff"></polygon></g><polygon points="126.22 399.83 126.22 332.12 119.38 328.18 119.38 395.89 126.22 399.83" style="fill:#ebebeb"></polygon><polygon points="126.22 399.83 126.22 332.12 119.38 328.18 119.38 395.89 126.22 399.83" style="fill:#1C94A4"></polygon><polygon points="126.22 399.83 126.22 332.12 119.38 328.18 119.38 395.89 126.22 399.83" style="opacity:0.4"></polygon><polygon points="160.41 399.83 160.41 332.12 167.24 328.18 167.24 395.89 160.41 399.83" style="fill:#1C94A4"></polygon><polygon points="160.41 399.83 160.41 332.12 167.24 328.18 167.24 395.89 160.41 399.83" style="opacity:0.15"></polygon><polygon points="119.38 328.18 161.47 303.88 168.31 307.82 126.22 332.12 119.38 328.18" style="fill:#1C94A4"></polygon><polygon points="142.75 322.58 135.92 318.63 142.75 314.68 149.59 318.63 142.75 322.58" style="opacity:0.25"></polygon><polygon points="160.41 332.12 118.32 307.82 125.16 303.88 167.24 328.18 160.41 332.12" style="fill:#1C94A4"></polygon><path d="M163,306.26c-.66,2.87-4.84,11.2-18.11,12.1l-1.35-1.18s15.41-3.86,12.06-17.37Z" style="fill:#1C94A4"></path><path d="M163,306.26c-.66,2.87-4.84,11.2-18.11,12.1l-1.35-1.18s15.41-3.86,12.06-17.37Z" style="opacity:0.4"></path><path d="M143.39,319.93s0-8.16,3.1-13,9.12-7.14,9.12-7.14a19.18,19.18,0,0,1,7.4,6.45A25,25,0,0,0,152.34,309c-5.2,2.75-7.44,9.38-7.44,9.38Z" style="fill:#1C94A4"></path><path d="M143.39,319.93s0-8.16,3.1-13,9.12-7.14,9.12-7.14a19.18,19.18,0,0,1,7.4,6.45A25,25,0,0,0,152.34,309c-5.2,2.75-7.44,9.38-7.44,9.38Z" style="opacity:0.15"></path><path d="M152.47,308.91l-5.37-2.83a17.49,17.49,0,0,1,3-3l7.09,4.06A23.34,23.34,0,0,0,152.47,308.91Z" style="fill:#1C94A4"></path><path d="M164,321.27a40,40,0,0,1-20.61-1.34l.87-1.57s6,1,10.26,0,7.86-7,7.86-7Z" style="fill:#1C94A4"></path><path d="M164,321.27a40,40,0,0,1-20.61-1.34l.87-1.57s6,1,10.26,0,7.86-7,7.86-7Z" style="opacity:0.4"></path><path d="M143.39,319.93s.11-2.23,3.26-5.16c4.13-3.84,12.2-3.84,15.73-3.45a7.15,7.15,0,0,1,2.72,4.46c.43,2.19-1.1,5.49-1.1,5.49a13.23,13.23,0,0,0-9.44-4.74,13,13,0,0,0-9.25,2.82Z" style="fill:#1C94A4"></path><path d="M143.39,319.93s.11-2.23,3.26-5.16c4.13-3.84,12.2-3.84,15.73-3.45a7.15,7.15,0,0,1,2.72,4.46c.43,2.19-1.1,5.49-1.1,5.49a13.23,13.23,0,0,0-9.44-4.74,13,13,0,0,0-9.25,2.82Z" style="opacity:0.15"></path><path d="M155.63,311.36a31.83,31.83,0,0,1,4-.19,7.72,7.72,0,0,1,1.85,7.8,13.64,13.64,0,0,0-4.21-2A9.07,9.07,0,0,0,155.63,311.36Z" style="fill:#1C94A4"></path><path d="M155.29,331.84a13.94,13.94,0,0,1-8-4.14,17.26,17.26,0,0,1-3.91-7.77l1.51-1.57a11.87,11.87,0,0,0,5.86,6.07c3.49,1.55,10,1.53,10,1.53Z" style="fill:#1C94A4"></path><path d="M155.29,331.84a13.94,13.94,0,0,1-8-4.14,17.26,17.26,0,0,1-3.91-7.77l1.51-1.57a11.87,11.87,0,0,0,5.86,6.07c3.49,1.55,10,1.53,10,1.53Z" style="opacity:0.4"></path><path d="M143.39,319.93l1.51-1.57s5.82-1.17,9,0,6.81,6.09,6.88,7.6a9.2,9.2,0,0,1-5.45,5.88s.3-5.36-3.74-8.5A16.37,16.37,0,0,0,143.39,319.93Z" style="fill:#1C94A4"></path><path d="M143.39,319.93l1.51-1.57s5.82-1.17,9,0,6.81,6.09,6.88,7.6a9.2,9.2,0,0,1-5.45,5.88s.3-5.36-3.74-8.5A16.37,16.37,0,0,0,143.39,319.93Z" style="opacity:0.15"></path><path d="M149.47,322l5.11-3.25a12.85,12.85,0,0,1,3.09,2.46l-5,3.17a8.81,8.81,0,0,0-1.09-1A16.87,16.87,0,0,0,149.47,322Z" style="fill:#1C94A4"></path><path d="M128.65,305.47c-.32,1.56.83,5.88,4.64,8.73s10.26,3.91,10.26,3.91l.91-.56s-6.39-4-8.45-7.68-.56-9.55-.56-9.55Z" style="fill:#1C94A4"></path><path d="M128.65,305.47c-.32,1.56.83,5.88,4.64,8.73s10.26,3.91,10.26,3.91l.91-.56s-6.39-4-8.45-7.68-.56-9.55-.56-9.55Z" style="opacity:0.4"></path><path d="M143.55,318.11a18.57,18.57,0,0,0-6.4-9c-4.77-3.39-8.5-3.62-8.5-3.62a11,11,0,0,1,6.8-5.15s5.46,3.21,7.53,8.12a19.43,19.43,0,0,1,1.48,9.11Z" style="fill:#1C94A4"></path><path d="M143.55,318.11a18.57,18.57,0,0,0-6.4-9c-4.77-3.39-8.5-3.62-8.5-3.62a11,11,0,0,1,6.8-5.15s5.46,3.21,7.53,8.12a19.43,19.43,0,0,1,1.48,9.11Z" style="opacity:0.15"></path><path d="M134.73,307.59a21.64,21.64,0,0,0-3.28-1.47,17.35,17.35,0,0,1,6.12-4.31,22.13,22.13,0,0,1,3.22,3.13A12.85,12.85,0,0,0,134.73,307.59Z" style="fill:#1C94A4"></path><path d="M123.17,315.67c1.87,2.53,8.35,6.74,19.68,3.3l.7-1.32s-6.45.5-11.76-2.21-5.7-6.35-5.7-6.35Z" style="fill:#1C94A4"></path><path d="M123.17,315.67c1.87,2.53,8.35,6.74,19.68,3.3l.7-1.32s-6.45.5-11.76-2.21-5.7-6.35-5.7-6.35Z" style="opacity:0.4"></path><path d="M143.55,317.65a16.61,16.61,0,0,0-7.84-7.27,17.22,17.22,0,0,0-9.62-1.29s-3.35,2.63-2.92,6.58a16.25,16.25,0,0,1,9.4-1.43c5.4.79,9.61,3.23,10.28,4.73Z" style="fill:#1C94A4"></path><path d="M143.55,317.65a16.61,16.61,0,0,0-7.84-7.27,17.22,17.22,0,0,0-9.62-1.29s-3.35,2.63-2.92,6.58a16.25,16.25,0,0,1,9.4-1.43c5.4.79,9.61,3.23,10.28,4.73Z" style="opacity:0.15"></path><path d="M128.73,314.15a16.86,16.86,0,0,0-3.87.82,11.94,11.94,0,0,1,3.75-6.08,17.73,17.73,0,0,1,2.42.21A11,11,0,0,0,128.73,314.15Z" style="fill:#1C94A4"></path><path d="M130.32,333.12c2.93.07,12.08-4.07,13.07-13.19l-1-2.18s-2.16,5.05-6.29,7.35S126,327.36,126,327.36Z" style="fill:#1C94A4"></path><path d="M130.32,333.12c2.93.07,12.08-4.07,13.07-13.19l-1-2.18s-2.16,5.05-6.29,7.35S126,327.36,126,327.36Z" style="opacity:0.4"></path><path d="M143.55,317.65s-5.22-.13-8.82,1.32c-6.34,2.57-8.48,5.59-8.76,8.39a10.62,10.62,0,0,0,4.35,5.76s2.6-6.78,5.8-9.63c4.27-3.8,7.27-3.56,7.27-3.56Z" style="fill:#1C94A4"></path><path d="M143.55,317.65s-5.22-.13-8.82,1.32c-6.34,2.57-8.48,5.59-8.76,8.39a10.62,10.62,0,0,0,4.35,5.76s2.6-6.78,5.8-9.63c4.27-3.8,7.27-3.56,7.27-3.56Z" style="opacity:0.15"></path><path d="M131.1,331.27a20.72,20.72,0,0,1-4.73-5.52,8.87,8.87,0,0,1,3-3.81,12.44,12.44,0,0,0,5.44,3A32.45,32.45,0,0,0,131.1,331.27Z" style="fill:#1C94A4"></path></g><g id="freepik--gift--inject-19"><polygon points="91.86 426.82 60.05 408.44 60.05 395.55 59.38 395.16 59.38 385.79 91.86 404.54 91.86 426.82" style="fill:#1C94A4"></polygon><polygon points="91.86 426.82 60.05 408.44 60.05 395.55 59.38 395.16 59.38 385.79 91.86 404.54 91.86 426.82" style="fill:#fff;opacity:0.30000000000000004"></polygon><polygon points="91.86 413.91 79.68 406.88 60.05 395.55 60.05 396.9 91.86 415.25 91.86 413.91" style="opacity:0.15"></polygon><polygon points="91.86 426.82 123.48 408.57 123.48 395.65 124.33 395.16 124.33 385.79 91.86 404.54 91.86 426.82" style="fill:#1C94A4"></polygon><polygon points="91.86 426.82 123.48 408.57 123.48 395.65 124.33 395.16 124.33 385.79 91.86 404.54 91.86 426.82" style="fill:#fff;opacity:0.45"></polygon><polygon points="123.49 395.65 91.86 413.91 91.86 415.25 123.49 397.01 123.49 395.65" style="opacity:0.1"></polygon><polygon points="124.33 385.79 91.86 367.04 59.38 385.79 91.86 404.54 124.33 385.79" style="fill:#1C94A4"></polygon><polygon points="124.33 385.79 91.86 367.04 59.38 385.79 91.86 404.54 124.33 385.79" style="fill:#fff;opacity:0.6000000000000001"></polygon><polygon points="105.04 419.21 105.04 396.92 110.32 393.88 110.32 416.17 105.04 419.21" style="fill:#37474f"></polygon><polygon points="78.67 419.21 78.67 396.92 73.39 393.88 73.39 416.17 78.67 419.21" style="fill:#263238"></polygon><polygon points="110.32 393.88 77.85 375.13 72.57 378.18 105.04 396.92 110.32 393.88" style="fill:#455a64"></polygon><polygon points="92.29 389.56 97.56 386.51 92.29 383.47 87.01 386.51 92.29 389.56" style="opacity:0.25"></polygon><polygon points="78.67 396.92 111.14 378.18 105.86 375.13 73.39 393.88 78.67 396.92" style="fill:#455a64"></polygon><path d="M112,377.63a10.82,10.82,0,0,1-6.86,7.18,57.69,57.69,0,0,1-12.51,2.8l12.74-16.22Z" style="fill:#263238"></path><path d="M92.66,387.61a16.51,16.51,0,0,1,2.14-8.76c2.44-3.83,10.6-7.46,10.6-7.46a34.94,34.94,0,0,1,6.63,6.24,25.6,25.6,0,0,0-18.26,9.77Z" style="fill:#37474f"></path><path d="M105.17,379.12a26,26,0,0,0-5.74,2.93l-4.16-3.85a21.35,21.35,0,0,1,5.48-4.35Z" style="fill:#455a64"></path><path d="M92.66,387.61a12,12,0,0,0,5.61,4.91c4,1.8,10.68,1.49,10.68,1.49l.37-8.4a8.39,8.39,0,0,1-6.88,4,12.35,12.35,0,0,1-8.24-2.74Z" style="fill:#263238"></path><path d="M92.66,387.61c4-4.38,7.91-4.91,11.49-4.19,4,.79,5.17,2.19,5.17,2.19L109,394a13.61,13.61,0,0,0-8-5.68C95.27,386.67,92.66,387.61,92.66,387.61Z" style="fill:#37474f"></path><path d="M107.33,384.38c-.92,1.42-2.39,3.74-3.31,5.21a14.84,14.84,0,0,0-3-1.26,26.25,26.25,0,0,0-3-.69l3.48-4.48a12.21,12.21,0,0,1,2.71.26A15.11,15.11,0,0,1,107.33,384.38Z" style="fill:#455a64"></path><path d="M92.87,386.67a18.68,18.68,0,0,1-10.07-4.86,21.59,21.59,0,0,1-5.25-10.25l7.23-4.85a13.75,13.75,0,0,0,1.67,11.34,11.35,11.35,0,0,0,6.44,5.19Z" style="fill:#263238"></path><path d="M92.87,386.67l-1.09-.19a19,19,0,0,0-6.12-10.88c-5.53-4.75-8.11-4-8.11-4a21.76,21.76,0,0,1,7.23-4.85s4.65,2.52,6.79,6.24C94.13,377.4,93.55,384.13,92.87,386.67Z" style="fill:#37474f"></path><path d="M81.54,372.68l6.1-4c.3.24.61.49.92.76l-6,3.9C82.23,373.07,81.87,372.86,81.54,372.68Z" style="fill:#455a64"></path><path d="M83.55,374l5.9-3.69a14.21,14.21,0,0,1,1.62,1.91l0,.06c.16.23.32.47.46.72s.13.31.21.45l-4.93,3.33c-.37-.38-.77-.76-1.19-1.13C84.9,375,84.2,374.41,83.55,374Z" style="fill:#455a64"></path><path d="M92.7,387.6s-1.84,1.95-6.24,3-10,.44-12.38-2.21l.49-7.79s3.7,5,9.1,5.84c4.11.64,9-1,9-1Z" style="fill:#263238"></path><path d="M93,385.81s-4.28-4.46-8.88-5.16c-6.24-.95-9.52,0-9.52,0a11.47,11.47,0,0,0-.49,7.79s2.69-2.9,9-3.13a21.49,21.49,0,0,1,9.61,2.29Z" style="fill:#37474f"></path><path d="M75.39,387.45a14.16,14.16,0,0,1,4.37-1.7l.81-5.46a26.36,26.36,0,0,0-4.64.11A18.1,18.1,0,0,0,75.39,387.45Z" style="fill:#455a64"></path></g></g></svg>